<?xml version="1.0" encoding="utf-8"?>
<!-- Generator: Adobe Illustrator 25.0.0, SVG Export Plug-In . SVG Version: 6.00 Build 0)  -->
<svg version="1.1" id="Layer_1" xmlns="http://www.w3.org/2000/svg" xmlns:xlink="http://www.w3.org/1999/xlink" x="0px" y="0px"
	 viewBox="0 0 1366 768" style="enable-background:new 0 0 1366 768;" xml:space="preserve">
<style type="text/css">
	.st0{clip-path:url(#SVGID_2_);}
	.st1{fill:#EBA452;}
</style>
<g>
	<defs>
		<rect id="SVGID_1_" x="558.99" y="195.51" width="248.01" height="376.98"/>
	</defs>
	<clipPath id="SVGID_2_">
		<use xlink:href="#SVGID_1_"  style="overflow:visible;"/>
	</clipPath>
	<g id="Group_51" transform="translate(0 0)" class="st0">
		<path id="Path_14" class="st1" d="M806.5,197.99c-0.81-1.53-2.4-2.48-4.13-2.48h-139.1c-1.8-0.01-3.44,1.03-4.2,2.66
			l-99.65,215.01c-0.64,1.38-0.55,2.99,0.25,4.29c0.79,1.3,2.16,2.13,3.68,2.22l67.91,4.22l-71.76,141.91
			c-1.04,2.05-0.4,4.54,1.49,5.84c1.89,1.32,4.46,1.04,6.03-0.64l183.23-194.61c1.26-1.33,1.6-3.28,0.87-4.96
			c-0.75-1.67-2.41-2.75-4.25-2.75h-58.61l117.89-165.95C807.15,201.36,807.28,199.52,806.5,197.99 M675.54,370.61L675.54,370.61
			L675.54,370.61L675.54,370.61"/>
	</g>
</g>
</svg>
