<?xml version="1.0" encoding="utf-8"?>
<!-- Generator: Adobe Illustrator 25.0.0, SVG Export Plug-In . SVG Version: 6.00 Build 0)  -->
<svg version="1.1" id="Layer_1" xmlns="http://www.w3.org/2000/svg" xmlns:xlink="http://www.w3.org/1999/xlink" x="0px" y="0px"
	 viewBox="0 0 595.28 841.89" style="enable-background:new 0 0 595.28 841.89;" xml:space="preserve">
<style type="text/css">
	.st0{fill:#8365AC;}
	.st1{clip-path:url(#SVGID_2_);}
</style>
<path id="Path_25" class="st0" d="M250.06,411.76h16.2v51.21h-16.2V411.76z"/>
<g id="Group_54" transform="translate(0 0)">
	<g>
		<defs>
			<rect id="SVGID_1_" x="250.06" y="379.04" width="93.2" height="83.93"/>
		</defs>
		<clipPath id="SVGID_2_">
			<use xlink:href="#SVGID_1_"  style="overflow:visible;"/>
		</clipPath>
		<g id="Group_53" class="st1">
			<path id="Path_15" class="st0" d="M342.64,422.35l-6.61,18.57c-8.43,17.82-6.59,22.04-24.3,22.04h-36.3V408.2l26.42-27.9
				c0.8-0.81,1.89-1.26,3.03-1.26h1.43c2.61,0,4.73,2.11,4.73,4.72c0,0.13,0,0.25-0.01,0.38l-1.9,24.06h23.84
				c0.25,0,0.5,0,0.74,0.02C340.57,408.68,344.94,415.85,342.64,422.35"/>
			<path id="Path_16" class="st0" d="M261.54,417.26c0,1.87-1.51,3.38-3.38,3.38c-1.87,0-3.38-1.51-3.38-3.38
				c0-1.87,1.51-3.38,3.38-3.38c0,0,0,0,0,0C260.02,413.89,261.54,415.4,261.54,417.26"/>
		</g>
	</g>
</g>
</svg>
