<?xml version="1.0" encoding="utf-8"?>
<!-- Generator: Adobe Illustrator 25.0.0, SVG Export Plug-In . SVG Version: 6.00 Build 0)  -->
<svg version="1.1" id="Layer_1" xmlns="http://www.w3.org/2000/svg" xmlns:xlink="http://www.w3.org/1999/xlink" x="0px" y="0px"
	 viewBox="0 0 843 843" style="enable-background:new 0 0 843 843;" xml:space="preserve">
<style type="text/css">
	.st0{clip-path:url(#SVGID_2_);}
	.st1{fill:#483466;}
</style>
<g id="Group_88" transform="translate(0 0)">
	<g>
		<defs>
			<rect id="SVGID_1_" x="280" y="234.77" width="324.86" height="369.15"/>
		</defs>
		<clipPath id="SVGID_2_">
			<use xlink:href="#SVGID_1_"  style="overflow:visible;"/>
		</clipPath>
		<g id="Group_87" class="st0">
			<g id="Ellipse_13">
				<path class="st1" d="M411.66,498.07c-72.59,0-131.65-59.07-131.65-131.66s59.06-131.65,131.65-131.65
					c72.6,0,131.65,59.06,131.65,131.65S484.26,498.07,411.66,498.07z M411.66,282.03c-46.53,0-84.39,37.86-84.39,84.38
					c0,46.54,37.86,84.4,84.39,84.4s84.39-37.86,84.39-84.4C496.05,319.89,458.19,282.03,411.66,282.03z"/>
			</g>
			<g id="Line_1">
				
					<rect x="507.86" y="431.7" transform="matrix(0.7839 -0.6209 0.6209 0.7839 -208.0208 442.4163)" class="st1" width="47.26" height="176.63"/>
			</g>
		</g>
	</g>
</g>
</svg>
