<?xml version="1.0" encoding="utf-8"?>
<!-- Generator: Adobe Illustrator 25.0.0, SVG Export Plug-In . SVG Version: 6.00 Build 0)  -->
<svg version="1.1" id="Layer_1" xmlns="http://www.w3.org/2000/svg" xmlns:xlink="http://www.w3.org/1999/xlink" x="0px" y="0px"
	 viewBox="0 0 843 843" style="enable-background:new 0 0 843 843;" xml:space="preserve">
<style type="text/css">
	.st0{fill:#EBA452;}
</style>
<g>
	<g>
		<path class="st0" d="M643.39,279.08H199.61c-11.05,0-20-8.95-20-20s8.95-20,20-20h443.78c11.05,0,20,8.95,20,20
			S654.43,279.08,643.39,279.08z"/>
	</g>
	<g>
		<path class="st0" d="M643.39,441.5H199.61c-11.05,0-20-8.96-20-20c0-11.05,8.95-20,20-20h443.78c11.05,0,20,8.95,20,20
			C663.39,432.55,654.43,441.5,643.39,441.5z"/>
	</g>
	<g>
		<path class="st0" d="M643.39,603.92H199.61c-11.05,0-20-8.95-20-20s8.95-20,20-20h443.78c11.05,0,20,8.95,20,20
			S654.43,603.92,643.39,603.92z"/>
	</g>
</g>
</svg>
