<?xml version="1.0" encoding="utf-8"?>
<!-- Generator: Adobe Illustrator 25.0.0, SVG Export Plug-In . SVG Version: 6.00 Build 0)  -->
<svg version="1.1" id="Layer_1" xmlns="http://www.w3.org/2000/svg" xmlns:xlink="http://www.w3.org/1999/xlink" x="0px" y="0px"
	 viewBox="0 0 843 843" style="enable-background:new 0 0 843 843;" xml:space="preserve">
<style type="text/css">
	.st0{fill:#321F48;}
</style>
<g id="Group_91">
	<g id="Group_83" transform="translate(1520 85)">
		<g id="Path_22">
			<path class="st0" d="M-1152.86,347.07l-23.48,38.56l235-0.4v39.81h-235.71c-13.37,0.07-25.74-7.04-32.42-18.61
				c-3.58-6.3-5.83-13.27-6.63-20.47c-1.89-22.81,9.53-44.67,29.34-56.13l-62.01-155.43h-41.2l0.85-40.19l68,0.53l13.78,38.86
				l286.13-0.4c3.67,0.01,7.26,1.05,10.36,3c2.98,1.87,5.32,4.61,6.7,7.84v0.21c3.38,9.46,1.12,20.02-5.83,27.27l-84.63,135.99h-0.3
				L-1152.86,347.07z"/>
		</g>
		<g id="Path_23">
			<path class="st0" d="M-1138.65,481.82c-0.01,20.49-16.63,37.1-37.12,37.09s-37.1-16.63-37.09-37.12
				c0.01-20.49,16.62-37.09,37.11-37.09C-1155.27,444.72-1138.66,461.33-1138.65,481.82"/>
		</g>
		<g id="Path_24">
			<path class="st0" d="M-942.6,481.82c-0.01,20.49-16.63,37.1-37.12,37.09c-20.49-0.01-37.1-16.63-37.09-37.12
				c0.01-20.47,16.59-37.07,37.06-37.09c20.51-0.01,37.14,16.6,37.16,37.11C-942.6,481.82-942.6,481.82-942.6,481.82"/>
		</g>
	</g>
</g>
</svg>
