<?xml version="1.0" encoding="utf-8"?>
<!-- Generator: Adobe Illustrator 25.0.0, SVG Export Plug-In . SVG Version: 6.00 Build 0)  -->
<svg version="1.1" id="Layer_1" xmlns="http://www.w3.org/2000/svg" xmlns:xlink="http://www.w3.org/1999/xlink" x="0px" y="0px"
	 viewBox="0 0 1366 768" style="enable-background:new 0 0 1366 768;" xml:space="preserve">
<style type="text/css">
	.st0{fill:#FFFFFF;}
</style>
<g id="Group_91" transform="translate(0)">
	<g id="Group_83" transform="translate(0 0)">
		<path id="Path_22" class="st0" d="M668.79,402.37l-12.81,20.95l128.07-0.22v21.68H655.51c-7.28,0.04-14.03-3.83-17.68-10.13
			c-1.95-3.44-3.18-7.24-3.61-11.18c-1.02-12.43,5.22-24.33,16.02-30.56l-33.73-84.63h-22.46l0.48-21.9l37.06,0.3l7.45,21.2
			l155.93-0.24c1.98,0.02,3.91,0.58,5.59,1.64c1.65,1,2.96,2.49,3.72,4.27v0.11c1.86,5.17,0.62,10.94-3.18,14.9l-46.06,74.05h-0.19
			L668.79,402.37z"/>
		<path id="Path_23" class="st0" d="M676.52,475.81c0,11.17-9.06,20.23-20.23,20.23c-11.17,0-20.23-9.06-20.23-20.23
			c0-11.17,9.06-20.23,20.23-20.23C667.47,455.58,676.52,464.64,676.52,475.81L676.52,475.81"/>
		<path id="Path_24" class="st0" d="M783.36,475.81c0,11.17-9.06,20.23-20.23,20.23c-11.17,0-20.23-9.06-20.23-20.23
			c0-11.17,9.06-20.23,20.23-20.23C774.3,455.58,783.36,464.64,783.36,475.81C783.36,475.81,783.36,475.81,783.36,475.81"/>
	</g>
</g>
</svg>
