<?xml version="1.0" encoding="utf-8"?>
<!-- Generator: Adobe Illustrator 25.0.0, SVG Export Plug-In . SVG Version: 6.00 Build 0)  -->
<svg version="1.1" id="Layer_1" xmlns="http://www.w3.org/2000/svg" xmlns:xlink="http://www.w3.org/1999/xlink" x="0px" y="0px"
	 viewBox="0 0 843 843" style="enable-background:new 0 0 843 843;" xml:space="preserve">
<style type="text/css">
	.st0{fill:#7151A0;}
	.st1{fill:#F6EB15;}
</style>
<g>
	<ellipse class="st0" cx="421.5" cy="421.5" rx="292.68" ry="290.07"/>
	<path class="st1" d="M245.01,384.55v0.1c-1.67,5.38-2.91,10.97-3.71,16.72c0,0.03-0.03,0.03-0.03,0.07c0-0.03,0-0.03,0-0.07
		c0.8-5.76,2.04-11.34,3.71-16.72C244.98,384.62,245.01,384.58,245.01,384.55z"/>
	<path class="st1" d="M438.82,410.9v6h-22.88v-6c0-53.22-38.08-96.49-84.94-96.49c-39.93,0-73.95,29.4-86.11,70.14
		c0,0.03-0.03,0.07-0.03,0.1c-1.66,5.38-2.89,10.97-3.69,16.72c0,0.03,0,0.03,0,0.07c-0.74,5.31-1.14,10.79-1.14,16.34v109.74
		c0,7.03-5.12,12.73-11.44,12.73h0c-6.32,0-11.44-5.7-11.44-12.73V416.9c0-0.41,0-0.82,0.03-1.2l0-106
		c0-8.73,6.42-16.39,14.25-16.15c3.66,0.11,6.98,1.81,9.39,4.52c2.52,2.78,4.06,6.65,4.06,10.9v24.29
		c20.87-27.45,51.72-44.85,86.11-44.85C390.45,288.4,438.82,343.36,438.82,410.9z"/>
	<g>
		<g>
			<path class="st1" d="M626.94,358.65c6.35,0,11.49,5.46,11.49,12.2v93.04c-0.19,30.58-10.67,58.6-27.84,80.15
				c-20.97,26.34-52,43.03-86.56,43.03c-59.74,0-108.34-52.69-108.34-117.43v-21.35h22.98v21.35c0,51.01,38.27,92.5,85.35,92.5
				c40.15,0,74.37-28.22,86.56-67.34c1.67-5.16,2.91-10.51,3.71-16.03c0.74-5.12,1.14-10.38,1.14-15.73v-92.19
				C615.45,364.11,620.59,358.65,626.94,358.65L626.94,358.65z"/>
		</g>
	</g>
	<polygon class="st1" points="527.07,423.25 507.38,401.44 527.07,379.64 546.75,401.44 	"/>
</g>
</svg>
